<svg xmlns="http://www.w3.org/2000/svg" xml:space="preserve" viewBox="0 0 24 24"><path d="m17.8 21-3.3-4v-6.9h.4c.2 0 .3-.1.4-.2s.2-.3.2-.4-.1-.3-.2-.4-.3-.2-.4-.2h-1c-.2 0-.3.1-.4.2s-.2.3-.2.4v7.8c0 .2.1.3.2.4l2.6 3.1H8l2.6-3.1c.1-.1.2-.3.2-.4V9.5c0-.2-.1-.3-.2-.4-.1-.1-.3-.2-.4-.2h-1c-.2 0-.3.1-.4.2s-.3.2-.3.4.1.3.2.4.3.2.4.2h.4V17l-3.3 4c-.2.2-.2.4-.1.6.1.1.1.2.2.3.1.1.2.1.3.1h10.7c.3 0 .4-.1.6-.4s.1-.4-.1-.6zM11.4 8.2c.3 0 .6-.1.9-.4s.4-.5.4-.9c0-.3-.1-.6-.4-.9s-.5-.4-.9-.4c-.2 0-.3 0-.5.1s-.3.3-.4.4c-.1.1-.2.2-.3.4-.1.2-.1.3-.1.5v.2c0 .1 0 .1.1.2 0 .1.1.1.1.2s.1.1.1.2.1.1.1.1c.1 0 .1.1.2.1s.1.1.2.1.1 0 .2.1.2 0 .3 0zm4-1.8c.6 0 1.1-.2 1.6-.6s.6-.9.6-1.6-.2-1.1-.6-1.6-.9-.6-1.6-.6c-.6 0-1.1.2-1.6.6s-.6.9-.6 1.6.2 1.1.6 1.6 1 .6 1.6.6zm0-3.2c.1 0 .3 0 .4.1s.2.1.3.2.1.2.2.3.1.2.1.4c0 .3-.1.5-.3.7-.2.2-.4.3-.7.3-.2 0-.3 0-.5-.1s-.3-.2-.3-.3-.1-.3-.1-.5c0-.3.1-.5.3-.7s.4-.4.6-.4z"/></svg>
