<svg xmlns="http://www.w3.org/2000/svg" xml:space="preserve" viewBox="0 0 24 24"><path fill-rule="evenodd" d="M16.9 8H20a2 2 0 0 1 2 2v2H2v-2c0-1.1.9-2 2-2h3.1c-.4-.2-.9-.5-1.2-.9a2.9 2.9 0 0 1 0-4.2 2.9 2.9 0 0 1 4.2 0c1.7 1.6 1.9 4.7 1.9 5 0-.3.2-3.4 1.9-5.1a3 3 0 0 1 4.2 0 2.9 2.9 0 0 1 0 4.2c-.3.5-.8.8-1.2 1zM7.3 5.7a1 1 0 0 1 0-1.4c.2-.2.4-.3.7-.3.3 0 .5.1.7.3.6.6.9 1.6 1.1 2.5-.9-.2-1.9-.5-2.5-1.1zm6.9 1.1c.2-.9.5-1.9 1.1-2.5.2-.2.4-.3.7-.3s.5.1.7.3c.4.4.4 1 0 1.4-.6.6-1.6.9-2.5 1.1zM3 14v6c0 1.1.9 2 2 2h6v-8H3zm10 0v8h6a2 2 0 0 0 2-2v-6h-8z" clip-rule="evenodd"/></svg>
