<svg xmlns="http://www.w3.org/2000/svg" xml:space="preserve" viewBox="0 0 24 24"><path d="M3.8 9.6c0 .4-.3.7-.7.7h-.4c-.4 0-.7-.3-.7-.7 0-.4.3-.7.7-.7h.4c.3 0 .7.3.7.7zm17.5-.2c1.7 3.5.1 7.7-3.6 9.3-3.6 1.6-7.8.1-9.5-3.4-.3-.7-.5-1.5-.6-2.2H6.3c-.4 0-.7-.3-.7-.7 0-.4.3-.7.7-.7h2.1c.4 0 .7-.3.7-.7s-.3-.7-.7-.7H5.1c-.4 0-.7-.3-.7-.7 0-.4.3-.7.7-.7h4.6c.4 0 .7-.3.7-.7 0-.4-.3-.7-.7-.7H7.8c-.6 0-1.1-.4-1.1-1.1 0-.6.5-1.1 1.1-1.1h7.3c2.6.2 5.1 1.7 6.2 4.1zm-8.2-.7c-2 .9-2.9 3.3-2 5.3s3.4 2.9 5.4 2c2-.9 2.9-3.3 2-5.3s-3.3-2.9-5.4-2zm3.3 1.4 1.3 2.2c.1.1.1.2 0 .3l-1.3 2.2c-.1.1-.2.1-.3.1h-2.5c-.1 0-.2-.1-.3-.1L12 12.6c-.1-.1-.1-.2 0-.3l1.3-2.2c.1-.1.2-.1.3-.1h2.5c.2-.1.2-.1.3.1z"/></svg>
