<svg xmlns="http://www.w3.org/2000/svg" version="1.1" xml:space="preserve" viewbox="0 0 24 24"><path d="m21,8.5c-1.45,0 -2.26,1.44 -1.93,2.51l-3.55,3.56c-0.3,-0.09 -0.74,-0.09 -1.04,0l-2.55,-2.55c0.34,-1.07 -0.47,-2.52 -1.93,-2.52c-1.45,0 -2.27,1.44 -1.93,2.52l-4.56,4.55c-1.07,-0.33 -2.51,0.48 -2.51,1.93c0,1.1 0.9,2 2,2c1.45,0 2.26,-1.44 1.93,-2.51l4.55,-4.56c0.3,0.09 0.74,0.09 1.04,0l2.55,2.55c-0.34,1.07 0.47,2.52 1.93,2.52c1.45,0 2.27,-1.44 1.93,-2.52l3.56,-3.55c1.07,0.33 2.51,-0.48 2.51,-1.93c0,-1.1 -0.9,-2 -2,-2z"/><polygon points="15,9.5 15.9399995803833,7.429999828338623 18,6.5 15.9399995803833,5.570000171661377 15,3.5 14.079999923706055,5.570000171661377 12,6.5 14.079999923706055,7.429999828338623 "/><polygon points="3.5,11.5 4,9.5 6,9 4,8.5 3.5,6.5 3,8.5 1,9 3,9.5 "/></svg>
