<svg xmlns="http://www.w3.org/2000/svg" xml:space="preserve" viewBox="0 0 24 24"><path d="m19.738,10l2.262,0l0,4l-2.261,0c-0.241,0.931 -0.639,1.798 -1.174,2.564l1.435,1.436l-2,2l-1.435,-1.436c-0.768,0.535 -1.633,0.934 -2.565,1.174l0,2.262l-4,0l0,-2.262c-0.931,-0.24 -1.797,-0.639 -2.564,-1.174l-1.436,1.436l-2,-2l1.436,-1.436c-0.535,-0.765 -0.934,-1.632 -1.174,-2.564l-2.262,0l0,-4l2.262,0c0.24,-0.932 0.638,-1.798 1.174,-2.564l-1.436,-1.436l2,-2l1.436,1.436c0.766,-0.536 1.632,-0.934 2.564,-1.174l0,-2.262l4,0l0,2.261c0.932,0.241 1.797,0.639 2.565,1.174l1.435,-1.436l2,2l-1.436,1.437c0.535,0.766 0.934,1.633 1.174,2.564zm-7.738,6c2.2091,0 4,-1.7909 4,-4c0,-2.20914 -1.7909,-4 -4,-4c-2.20914,0 -4,1.79086 -4,4c0,2.2091 1.79086,4 4,4z"/></svg>
