<svg xmlns="http://www.w3.org/2000/svg" xml:space="preserve" viewBox="0 0 24 24"><path fill="currentColor" d="M12 2C6.5 2 2 6.5 2 12s4.5 10 10 10 10-4.5 10-10S17.5 2 12 2zm4.6 14.4c-.2.3-.6.4-.9.2-2.3-1.4-5.3-1.8-8.8-1-.3.1-.7-.1-.7-.5-.1-.3.1-.7.5-.7 3.8-.9 7.1-.5 9.7 1.1.3.2.4.6.2.9zm1.2-2.7c-.2.4-.7.5-1.1.3-2.7-1.7-6.8-2.1-10-1.2-.4.1-.8-.1-1-.5-.1-.4.1-.8.5-1 3.6-1.1 8.1-.6 11.2 1.3.5.3.6.7.4 1.1zm.1-2.8C14.7 9 9.4 8.8 6.3 9.7c-.5.1-1-.1-1.2-.6-.1-.5.2-1 .7-1.2 3.5-1.1 9.4-.9 13.1 1.3.4.3.6.8.3 1.3s-.8.6-1.3.4z"/></svg>
