<?xml version="1.0" encoding="utf-8"?>
<!-- Generator: Adobe Illustrator 25.2.1, SVG Export Plug-In . SVG Version: 6.00 Build 0)  -->
<svg version="1.1" id="Layer_1" xmlns="http://www.w3.org/2000/svg" xmlns:xlink="http://www.w3.org/1999/xlink" x="0px" y="0px"
	 viewBox="0 0 24 24" style="enable-background:new 0 0 24 24;" xml:space="preserve">
<path d="M12,0C5.4,0,0,5.4,0,12s5.4,12,12,12s12-5.4,12-12S18.6,0,12,0z M16.9,17.7c-0.2,0-0.3-0.1-0.5-0.2c-3-1.8-6.5-1.9-10-1.2
	c-0.2,0-0.4,0.1-0.6,0.1C5.3,16.4,5,16,5,15.7c0-0.5,0.3-0.7,0.7-0.8c4-0.9,8-0.8,11.5,1.3c0.3,0.2,0.5,0.4,0.5,0.8
	S17.3,17.7,16.9,17.7L16.9,17.7z M18.2,14.5c-0.3,0-0.4-0.1-0.6-0.2c-3-1.8-7.5-2.5-11.5-1.4C5.8,12.9,5.7,13,5.5,13
	c-0.5,0-0.9-0.4-0.9-0.9c0-0.5,0.3-0.9,0.8-1c1.3-0.4,2.7-0.7,4.7-0.7c3.1,0,6.2,0.8,8.6,2.2c0.4,0.2,0.5,0.5,0.5,1
	C19.1,14.1,18.7,14.5,18.2,14.5z M19.7,10.8c-0.3,0-0.4-0.1-0.6-0.2C15.6,8.6,9.4,8.1,5.5,9.2c-0.2,0-0.4,0.1-0.6,0.1
	c-0.6,0-1.1-0.5-1.1-1.1c0-0.7,0.4-1,0.8-1.2c1.7-0.5,3.6-0.7,5.7-0.7c3.5,0,7.2,0.7,9.9,2.3c0.4,0.2,0.6,0.5,0.6,1.1
	C20.8,10.3,20.3,10.8,19.7,10.8L19.7,10.8z"/>
</svg>
