<svg xmlns="http://www.w3.org/2000/svg" xml:space="preserve" viewBox="0 0 24 24"><path fill-rule="evenodd" d="M14 2.7v4.7c0 1.4 1.2 2.6 2.6 2.6h4.7c.6 0 .9-.7.5-1.1l-6.7-6.7c-.4-.4-1.1-.1-1.1.5zm2.5 9.3c-2.5 0-4.6-2.1-4.6-4.6V2.1H4a2 2 0 0 0-2 2V20c0 1.1.9 2 2 2h15.9a2 2 0 0 0 2-2v-8h-5.4zM14 15h-4c0 1.1.9 2 2 2a2 2 0 0 0 2-2zm5.7.3c0 .6-.5 1.1-1.1 1.1-.6 0-1.1-.5-1.1-1.1 0-.6.5-1.1 1.1-1.1.6 0 1.1.5 1.1 1.1zM4 14.2l.5-1.2 3.1 1.8c.2.1.2.3 0 .4L4.5 17 4 15.8l1.3-.8-1.3-.8z" clip-rule="evenodd"/></svg>
