<svg xmlns="http://www.w3.org/2000/svg" viewBox="0 0 24 24"><path fill="currentColor" d="M10.997,8.747v3.68c0,0.35,0.19,0.68,0.49,0.86l3.12,1.85c0.36,0.21,0.82,0.09,1.03-0.26c0.21-0.36,0.1-0.82-0.26-1.03 l-2.87-1.71v-3.4c-0.01-0.4-0.35-0.74-0.76-0.74S10.997,8.337,10.997,8.747z"></path><path fill="currentColor" d="M20.997,9.497v-5.29c0-0.45-0.54-0.67-0.85-0.35l-1.78,1.78c-1.81-1.81-4.39-2.85-7.21-2.6c-4.19,0.38-7.64,3.75-8.1,7.94 c-0.6,5.42,3.63,10.02,8.94,10.02c4.59,0,8.38-3.44,8.93-7.88c0.07-0.6-0.4-1.12-1-1.12c-0.5,0-0.92,0.37-0.98,0.86 c-0.43,3.49-3.44,6.19-7.05,6.14c-3.71-0.05-6.84-3.18-6.9-6.9c-0.06-3.9,3.11-7.1,7-7.1c1.93,0,3.68,0.79,4.95,2.05l-2.09,2.09c-0.32,0.32-0.1,0.86,0.35,0.86h5.29C20.777,9.997,20.997,9.777,20.997,9.497z"></path></svg>
