<?xml version="1.0" encoding="utf-8"?>
<!-- Generator: Adobe Illustrator 25.2.1, SVG Export Plug-In . SVG Version: 6.00 Build 0)  -->
<svg version="1.1" id="Layer_1" xmlns="http://www.w3.org/2000/svg" xmlns:xlink="http://www.w3.org/1999/xlink" x="0px" y="0px"
	 viewBox="0 0 24 24" style="enable-background:new 0 0 24 24;" xml:space="preserve">
<path d="M19.9,2.5c-0.5-0.5-1.2-0.5-1.6,0l-0.8,0.8l3.3,3.3l0.8-0.8c0.5-0.5,0.5-1.2,0-1.6L19.9,2.5z M13,0.5
	c-0.7-0.7-1.9-0.7-2.7,0.1L5,6C4.2,6.8,4.2,8,4.9,8.7l10.4,10.4c0.7,0.7,1.9,0.7,2.7-0.1l5.4-5.4c0.8-0.8,0.8-1.9,0.1-2.7L13,0.5z
	 M7.7,13.1l-7.3,7.3c-0.5,0.5-0.5,1.2,0,1.6L2,23.7c0.5,0.5,1.2,0.5,1.6,0l7.3-7.3L7.7,13.1z"/>
</svg>
