<?xml version="1.0" encoding="utf-8"?>
<!-- Generator: Adobe Illustrator 25.2.1, SVG Export Plug-In . SVG Version: 6.00 Build 0)  -->
<svg version="1.1" id="Layer_1" xmlns="http://www.w3.org/2000/svg" xmlns:xlink="http://www.w3.org/1999/xlink" x="0px" y="0px"
	 viewBox="0 0 24 24" style="enable-background:new 0 0 24 24;" xml:space="preserve">
<path d="M12,0C5.4,0,0,5.4,0,12s5.4,12,12,12s12-5.4,12-12S18.6,0,12,0z M2.4,12c0-5.3,4.3-9.6,9.6-9.6c2.2,0,4.3,0.8,5.9,2
	L4.4,17.9C3.2,16.3,2.4,14.2,2.4,12z M12,21.6c-2.2,0-4.3-0.8-5.9-2L19.6,6.1c1.3,1.6,2,3.7,2,5.9C21.6,17.3,17.3,21.6,12,21.6z"/>
</svg>
