<?xml version="1.0" encoding="utf-8"?>
<!-- Generator: Adobe Illustrator 25.2.1, SVG Export Plug-In . SVG Version: 6.00 Build 0)  -->
<svg version="1.1" id="Layer_1" xmlns="http://www.w3.org/2000/svg" xmlns:xlink="http://www.w3.org/1999/xlink" x="0px" y="0px"
	 viewBox="0 0 24 24" style="enable-background:new 0 0 24 24;" xml:space="preserve">
<path d="M12,1.1c3,0,5.5,2.4,5.5,5.5v2.2H6.5V6.5C6.5,3.5,9,1.1,12,1.1z M10.4,4.9c0,0.9,0.7,1.6,1.6,1.6s1.6-0.7,1.6-1.6
	S12.9,3.3,12,3.3S10.4,4,10.4,4.9z M24,22.9h-6.5l2.2-3.3V12h-2.2v6.5c0,0.6-0.5,1.1-1.1,1.1h-2.2l1.1,3.3H8.7l1.1-3.3H7.6
	c-0.6,0-1.1-0.5-1.1-1.1V12H4.4v7.6l2.2,3.3H0l2.2-3.3V12c0-1.2,1-2.2,2.2-2.2h15.3c1.2,0,2.2,1,2.2,2.2v7.6L24,22.9z M13.1,14.2
	c0,0.6,0.5,1.1,1.1,1.1c0.6,0,1.1-0.5,1.1-1.1s-0.5-1.1-1.1-1.1C13.6,13.1,13.1,13.6,13.1,14.2z"/>
</svg>
