<?xml version="1.0" encoding="utf-8"?>
<!-- Generator: Adobe Illustrator 25.2.1, SVG Export Plug-In . SVG Version: 6.00 Build 0)  -->
<svg version="1.1" id="Layer_1" xmlns="http://www.w3.org/2000/svg" xmlns:xlink="http://www.w3.org/1999/xlink" x="0px" y="0px"
	 viewBox="0 0 22 22" style="enable-background:new 0 0 22 22;" xml:space="preserve">
<g>
	<g>
		<path d="M19.9,4H18V2.1C18,1,17.1,0,15.9,0H2.1C1,0,0,1,0,2.1v13.8C0,17.1,1,18,2.1,18H4v1.8C4,21,4.9,22,6.1,22h13.7
			c1.2,0,2.1-1,2.1-2.1V6.1C22,4.9,21,4,19.9,4z M2.1,17.2c-0.7,0-1.3-0.6-1.3-1.3V2.1c0-0.7,0.6-1.3,1.3-1.3h13.7
			c0.7,0,1.3,0.6,1.3,1.3v13.8c0,0.7-0.6,1.3-1.3,1.3H2.1z M21.1,19.9c0,0.7-0.6,1.3-1.3,1.3H6.1c-0.7,0-1.3-0.6-1.3-1.3V18h11.1
			c1.2,0,2.1-1,2.1-2.1V4.8h1.8c0.7,0,1.3,0.6,1.3,1.3V19.9z"/>
	</g>
</g>
<g>
	<g>
		<path d="M19.9,19.6H7.3c-0.2,0-0.4,0.2-0.4,0.4c0,0.2,0.2,0.4,0.4,0.4h12.5c0.2,0,0.4-0.2,0.4-0.4S20.1,19.6,19.9,19.6z"/>
	</g>
</g>
<g>
	<g>
		<path d="M6.1,19.6L6.1,19.6c-0.2,0-0.4,0.2-0.4,0.4c0,0.2,0.2,0.4,0.4,0.4h0c0.2,0,0.4-0.2,0.4-0.4S6.3,19.6,6.1,19.6z"/>
	</g>
</g>
<g>
	<g>
		<path d="M4.8,2L4.8,2C4.6,2,4.4,2.2,4.4,2.4s0.2,0.4,0.4,0.4h0c0.2,0,0.4-0.2,0.4-0.4S5.1,2,4.8,2z"/>
	</g>
</g>
<g>
	<g>
		<path d="M3.8,2H2.4C2.2,2,2,2.2,2,2.4s0.2,0.4,0.4,0.4h1.3c0.2,0,0.4-0.2,0.4-0.4S4,2,3.8,2z"/>
	</g>
</g>
<g>
	<g>
		<path d="M5.2,10.6L5.2,10.6L4.6,9.3C4.8,9.2,5,9.1,5.2,8.9c0.2-0.2,0.3-0.5,0.3-0.8c0-0.4-0.1-0.7-0.4-0.9C4.9,7,4.7,6.9,4.6,6.9
			C4.4,6.8,4.2,6.8,4,6.8H2.8c-0.1,0-0.2,0-0.3,0.1C2.4,7,2.4,7.1,2.4,7.2v3.6c0,0.1,0,0.2,0.1,0.3c0,0,0.1,0.1,0.1,0.1
			c0.1,0,0.1,0,0.2,0c0.1,0,0.2,0,0.3-0.1c0,0,0.1-0.1,0.1-0.1c0-0.1,0-0.1,0-0.2V9.4h0.5L4.5,11l0,0c0.1,0.1,0.1,0.2,0.2,0.2
			c0.1,0,0.1,0,0.2,0c0.1,0,0.1,0,0.2,0c0.1,0,0.2-0.1,0.2-0.3h0c0-0.1,0-0.1,0-0.2C5.3,10.7,5.3,10.7,5.2,10.6z M4.6,8.2
			c0,0.1-0.1,0.2-0.1,0.2c-0.1,0-0.1,0.1-0.2,0.1c-0.1,0-0.1,0-0.2,0v0H3.2V7.6H4c0.1,0,0.3,0,0.3,0.1C4.4,7.8,4.5,7.9,4.5,8
			C4.6,8,4.6,8.1,4.6,8.2z"/>
	</g>
</g>
<g>
	<g>
		<path d="M15.6,7c0-0.1-0.1-0.2-0.2-0.2l0,0c-0.1,0-0.2,0-0.3,0c-0.1,0-0.2,0.1-0.2,0.3v0L14,9.5l-0.8-2.4h0c0-0.1-0.1-0.2-0.2-0.2
			c-0.1,0-0.1-0.1-0.2-0.1c-0.1,0-0.2,0-0.2,0.1c-0.1,0.1-0.2,0.1-0.2,0.2h0l-0.8,2.4l-0.8-2.4l0,0c0-0.1-0.1-0.2-0.2-0.3
			c-0.1,0-0.1,0-0.2,0c-0.1,0-0.1,0-0.2,0C10,6.8,9.9,6.9,9.8,7c-0.1,0.1-0.1,0.2,0,0.3l0,0l1.3,3.6l0,0c0.1,0.1,0.1,0.2,0.2,0.3
			c0,0,0.1,0,0.2,0c0.1,0,0.1,0,0.2,0c0.1,0,0.2-0.1,0.3-0.3l0,0l0.8-2.4l0.9,2.4l0,0c0,0.1,0.1,0.2,0.2,0.2c0.1,0,0.2,0.1,0.2,0.1
			c0.1,0,0.2,0,0.2-0.1c0.1-0.1,0.1-0.1,0.2-0.2l1.3-3.6C15.7,7.3,15.7,7.1,15.6,7z"/>
	</g>
</g>
<g>
	<g>
		<path d="M9.7,10.6L9.7,10.6L9.4,9.7l0,0L8.3,7.1h0C8.2,7,8.1,6.9,8,6.8c-0.1,0-0.1,0-0.2,0c-0.1,0-0.1,0-0.2,0
			c-0.1,0-0.2,0.1-0.2,0.2l0,0L6.4,9.7h0L6,10.6v0c0,0.1,0,0.2,0,0.3c0,0.1,0.1,0.2,0.2,0.2l0,0c0.1,0,0.2,0,0.3,0
			c0.1,0,0.2-0.1,0.2-0.2l0.3-0.6h1.6L8.9,11c0.1,0.1,0.1,0.2,0.2,0.2c0.1,0,0.1,0,0.2,0c0.1,0,0.1,0,0.2,0c0.1,0,0.2-0.1,0.2-0.2
			l0,0C9.8,10.9,9.8,10.7,9.7,10.6z M7.4,9.5l0.4-1.1l0.4,1.1H7.4z"/>
	</g>
</g>
</svg>
