<?xml version="1.0" encoding="utf-8"?>
<!-- Generator: Adobe Illustrator 25.2.1, SVG Export Plug-In . SVG Version: 6.00 Build 0)  -->
<svg version="1.1" id="Layer_1" xmlns="http://www.w3.org/2000/svg" xmlns:xlink="http://www.w3.org/1999/xlink" x="0px" y="0px"
	 viewBox="0 0 24 24" style="enable-background:new 0 0 24 24;" xml:space="preserve">
<path d="M19.8,0H9C7.7,0,6.6,1.1,6.6,2.4v14.4c0,1.3,1.1,2.4,2.4,2.4h10.8c1.3,0,2.4-1.1,2.4-2.4V2.4C22.2,1.1,21.1,0,19.8,0z
	 M19.8,16.8H9V2.4h10.8V16.8z M1.8,15.6v-2.4h2.4v2.4H1.8z M1.8,9h2.4v2.4H1.8V9z M10.2,21.6h2.4V24h-2.4V21.6z M1.8,19.8v-2.4h2.4
	v2.4H1.8z M4.2,24c-1.3,0-2.4-1.1-2.4-2.4h2.4V24z M8.4,24H6v-2.4h2.4V24z M14.4,24L14.4,24v-2.4h2.4l0,0C16.8,22.9,15.7,24,14.4,24
	z M4.2,4.8L4.2,4.8v2.4H1.8l0,0C1.8,5.9,2.9,4.8,4.2,4.8z"/>
</svg>
