<?xml version="1.0" encoding="utf-8"?>
<!-- Generator: Adobe Illustrator 25.2.1, SVG Export Plug-In . SVG Version: 6.00 Build 0)  -->
<svg version="1.1" id="Layer_1" xmlns="http://www.w3.org/2000/svg" xmlns:xlink="http://www.w3.org/1999/xlink" x="0px" y="0px"
	 viewBox="0 0 24 24" style="enable-background:new 0 0 24 24;" xml:space="preserve">
<path d="M9.2,6.8C9.5,6,9.7,5.2,9.6,4.3C9.3,2.2,7.7,0.4,5.7,0.1C2.3-0.5-0.5,2.3,0.1,5.7c0.4,2.1,2.1,3.7,4.2,3.9
	C5.2,9.7,6,9.5,6.8,9.2L9.6,12l-2.8,2.8c-0.7-0.3-1.6-0.5-2.5-0.4c-2.1,0.2-3.8,1.8-4.2,3.9c-0.6,3.3,2.3,6.2,5.6,5.6
	c2.1-0.4,3.7-2.1,3.9-4.2c0.1-0.9-0.1-1.8-0.4-2.5l2.8-2.8l9.1,9.1c1.1,1.1,2.9,0.3,2.9-1.2v0c0-0.4-0.2-0.9-0.5-1.2L9.2,6.8z
	 M4.8,7.2c-1.3,0-2.4-1.1-2.4-2.4s1.1-2.4,2.4-2.4s2.4,1.1,2.4,2.4S6.1,7.2,4.8,7.2z M4.8,21.6c-1.3,0-2.4-1.1-2.4-2.4
	c0-1.3,1.1-2.4,2.4-2.4s2.4,1.1,2.4,2.4C7.2,20.5,6.1,21.6,4.8,21.6z M12,12.6c-0.3,0-0.6-0.3-0.6-0.6c0-0.3,0.3-0.6,0.6-0.6
	c0.3,0,0.6,0.3,0.6,0.6C12.6,12.3,12.3,12.6,12,12.6z M21.1,0.5l-7.9,7.9l2.4,2.4l7.9-7.9C23.8,2.6,24,2.1,24,1.7v0
	C24,0.2,22.2-0.6,21.1,0.5z"/>
</svg>
