<?xml version="1.0" encoding="utf-8"?>
<!-- Generator: Adobe Illustrator 25.2.1, SVG Export Plug-In . SVG Version: 6.00 Build 0)  -->
<svg version="1.1" id="Layer_1" xmlns="http://www.w3.org/2000/svg" xmlns:xlink="http://www.w3.org/1999/xlink" x="0px" y="0px"
	 viewBox="0 0 24 24" style="enable-background:new 0 0 24 24;" xml:space="preserve">
<g>
	<path d="M18.7,1.9l-4.4,4.4c-0.1,0.1-0.2,0.2-0.2,0.4v8.9c0,0.5,0.6,0.7,0.9,0.4l4.4-3.9c0.1-0.1,0.2-0.3,0.2-0.4V2.3
		C19.6,1.8,19,1.6,18.7,1.9z M23.4,6.1c-0.5-0.3-1-0.5-1.6-0.7v13.1c-1.2-0.4-2.5-0.7-3.8-0.7c-2.1,0-4.1,0.6-6,1.7V6.4
		c-1.8-1-3.8-1.6-6-1.6c-2,0-3.8,0.5-5.4,1.3C0.2,6.3,0,6.7,0,7.1v13.2c0,0.8,0.9,1.3,1.6,0.9c1.3-0.7,2.8-1.1,4.4-1.1
		c2.3,0,4.3,0.9,6,2.2c1.7-1.3,3.7-2.2,6-2.2c1.6,0,3.1,0.4,4.4,1.1c0.7,0.4,1.6-0.1,1.6-0.9V7.1C24,6.7,23.8,6.3,23.4,6.1z"/>
</g>
</svg>
