<?xml version="1.0" encoding="utf-8"?>
<!-- Generator: Adobe Illustrator 25.2.1, SVG Export Plug-In . SVG Version: 6.00 Build 0)  -->
<svg version="1.1" id="Layer_1" xmlns="http://www.w3.org/2000/svg" xmlns:xlink="http://www.w3.org/1999/xlink" x="0px" y="0px"
	 viewBox="0 0 24 24" style="enable-background:new 0 0 24 24;" xml:space="preserve">
<path d="M24,15.6V8.7c0-1.1-1.4-1.7-2.2-0.9l-3,3V6.3c0-0.7-0.6-1.3-1.3-1.3h-7.2l11.5,11.5C22.6,17.3,24,16.7,24,15.6z M0.4,0.5
	c-0.5,0.5-0.5,1.3,0,1.8L3,5H2C1.3,5,0.8,5.6,0.8,6.3v12.9c0,0.7,0.6,1.3,1.3,1.3h15.5c0.3,0,0.5-0.1,0.7-0.2l3.2,3.2
	c0.5,0.5,1.3,0.5,1.8,0c0.5-0.5,0.5-1.3,0-1.8L2.2,0.5C1.7,0,0.9,0,0.4,0.5z"/>
</svg>
