<?xml version="1.0" encoding="utf-8"?>
<!-- Generator: Adobe Illustrator 25.2.1, SVG Export Plug-In . SVG Version: 6.00 Build 0)  -->
<svg version="1.1" id="Layer_1" xmlns="http://www.w3.org/2000/svg" xmlns:xlink="http://www.w3.org/1999/xlink" x="0px" y="0px"
	 viewBox="0 0 24 24" style="enable-background:new 0 0 24 24;" xml:space="preserve">
<path d="M4.8,24v-4.8H2.4c-1.3,0-2.4-1.1-2.4-2.4V2.4C0,1.1,1.1,0,2.4,0h19.2C22.9,0,24,1.1,24,2.4v14.4c0,1.3-1.1,2.4-2.4,2.4H11.2
	L4.8,24z M2.4,2.4v14.4h4.8v2.4l3.2-2.4h11.2V2.4H2.4z"/>
<path d="M8.4,4.8H6v9.6h2.4V4.8z"/>
<path d="M13.2,9.6h-2.4v4.8h2.4V9.6z"/>
<path d="M18,7.2h-2.4v7.2H18V7.2z"/>
</svg>
