<?xml version="1.0" encoding="utf-8"?>
<!-- Generator: Adobe Illustrator 25.2.1, SVG Export Plug-In . SVG Version: 6.00 Build 0)  -->
<svg version="1.1" id="Layer_1" xmlns="http://www.w3.org/2000/svg" xmlns:xlink="http://www.w3.org/1999/xlink" x="0px" y="0px"
	 viewBox="0 0 24 24" style="enable-background:new 0 0 24 24;" xml:space="preserve">
<path d="M12,0C5.4,0,0,5.4,0,12s5.4,12,12,12h6v-2.4h-6c-5.2,0-9.6-4.4-9.6-9.6S6.8,2.4,12,2.4s9.6,4.4,9.6,9.6v1.7
	c0,0.9-0.9,1.9-1.8,1.9c-0.9,0-1.8-0.9-1.8-1.9V12c0-3.3-2.7-6-6-6s-6,2.7-6,6s2.7,6,6,6c1.7,0,3.2-0.7,4.2-1.8
	c0.8,1.1,2.1,1.8,3.6,1.8c2.4,0,4.2-1.9,4.2-4.3V12C24,5.4,18.6,0,12,0z M12,15.6c-2,0-3.6-1.6-3.6-3.6S10,8.4,12,8.4
	s3.6,1.6,3.6,3.6S14,15.6,12,15.6z"/>
</svg>
