<?xml version="1.0" encoding="utf-8"?>
<!-- Generator: Adobe Illustrator 25.2.1, SVG Export Plug-In . SVG Version: 6.00 Build 0)  -->
<svg version="1.1" id="Layer_1" xmlns="http://www.w3.org/2000/svg" xmlns:xlink="http://www.w3.org/1999/xlink" x="0px" y="0px"
	 viewBox="0 0 24 24" style="enable-background:new 0 0 24 24;" xml:space="preserve">
<path d="M18,12c0-2.4-1.4-4.4-3.3-5.4v2.9l3.3,3.3C18,12.6,18,12.3,18,12z M21.3,12c0,1.3-0.3,2.4-0.7,3.5l2,2
	C23.5,15.9,24,14,24,12c0-5.7-4-10.5-9.3-11.7v2.7C18.5,4.2,21.3,7.8,21.3,12z M1.7,0L0,1.7L6.3,8H0v8h5.3l6.7,6.7v-9l5.7,5.7
	c-0.9,0.7-1.9,1.2-3,1.6v2.7c1.8-0.4,3.5-1.3,4.9-2.4l2.7,2.7l1.7-1.7l-12-12L1.7,0z M12,1.3L9.2,4.1L12,6.9V1.3z"/>
</svg>
