<?xml version="1.0" encoding="utf-8"?>
<!-- Generator: Adobe Illustrator 25.2.1, SVG Export Plug-In . SVG Version: 6.00 Build 0)  -->
<svg version="1.1" id="Layer_1" xmlns="http://www.w3.org/2000/svg" xmlns:xlink="http://www.w3.org/1999/xlink" x="0px" y="0px"
	 viewBox="0 0 24 24" style="enable-background:new 0 0 24 24;" xml:space="preserve">
<path d="M13.5,19.5h-12C0.7,19.5,0,20.2,0,21s0.7,1.5,1.5,1.5h12c0.8,0,1.5-0.7,1.5-1.5S14.3,19.5,13.5,19.5z M22.5,7.5h-21
	C0.7,7.5,0,8.2,0,9s0.7,1.5,1.5,1.5h21c0.8,0,1.5-0.7,1.5-1.5S23.3,7.5,22.5,7.5z M1.5,16.5h21c0.8,0,1.5-0.7,1.5-1.5
	s-0.7-1.5-1.5-1.5h-21C0.7,13.5,0,14.2,0,15S0.7,16.5,1.5,16.5z M0,3c0,0.8,0.7,1.5,1.5,1.5h21C23.3,4.5,24,3.8,24,3
	s-0.7-1.5-1.5-1.5h-21C0.7,1.5,0,2.2,0,3z"/>
</svg>
