<?xml version="1.0" encoding="utf-8"?>
<!-- Generator: Adobe Illustrator 25.2.1, SVG Export Plug-In . SVG Version: 6.00 Build 0)  -->
<svg version="1.1" id="Layer_1" xmlns="http://www.w3.org/2000/svg" xmlns:xlink="http://www.w3.org/1999/xlink" x="0px" y="0px"
	 viewBox="0 0 24 24" style="enable-background:new 0 0 24 24;" xml:space="preserve">
<path d="M21.6,4.8H12l-1.7-1.7C9.9,2.7,9.2,2.4,8.6,2.4H2.4C1.1,2.4,0,3.5,0,4.8l0,14.4c0,1.3,1.1,2.4,2.4,2.4h19.2
	c1.3,0,2.4-1.1,2.4-2.4v-12C24,5.9,22.9,4.8,21.6,4.8z M20.4,19.2H3.6c-0.7,0-1.2-0.5-1.2-1.2V8.4c0-0.7,0.5-1.2,1.2-1.2h16.8
	c0.7,0,1.2,0.5,1.2,1.2V18C21.6,18.7,21.1,19.2,20.4,19.2z"/>
</svg>
