<?xml version="1.0" encoding="utf-8"?>
<!-- Generator: Adobe Illustrator 25.2.1, SVG Export Plug-In . SVG Version: 6.00 Build 0)  -->
<svg version="1.1" id="Layer_1" xmlns="http://www.w3.org/2000/svg" xmlns:xlink="http://www.w3.org/1999/xlink" x="0px" y="0px"
	 viewBox="0 0 24 24" style="enable-background:new 0 0 24 24;" xml:space="preserve">
<path d="M19.6,2.2h-4.6C14.6,0.9,13.4,0,12,0S9.4,0.9,8.9,2.2H4.4c-1.2,0-2.2,1-2.2,2.2v17.5c0,1.2,1,2.2,2.2,2.2h15.3
	c1.2,0,2.2-1,2.2-2.2V4.4C21.8,3.2,20.8,2.2,19.6,2.2z M12,2.2c0.6,0,1.1,0.5,1.1,1.1S12.6,4.4,12,4.4s-1.1-0.5-1.1-1.1
	S11.4,2.2,12,2.2z M18.5,21.8H5.5c-0.6,0-1.1-0.5-1.1-1.1V5.5c0-0.6,0.5-1.1,1.1-1.1h1.1v1.1c0,1.2,1,2.2,2.2,2.2h6.5
	c1.2,0,2.2-1,2.2-2.2V4.4h1.1c0.6,0,1.1,0.5,1.1,1.1v15.3C19.6,21.3,19.1,21.8,18.5,21.8z"/>
</svg>
