<?xml version="1.0" encoding="utf-8"?>
<!-- Generator: Adobe Illustrator 25.2.1, SVG Export Plug-In . SVG Version: 6.00 Build 0)  -->
<svg version="1.1" id="Layer_1" xmlns="http://www.w3.org/2000/svg" xmlns:xlink="http://www.w3.org/1999/xlink" x="0px" y="0px"
	 viewBox="0 0 24 24" style="enable-background:new 0 0 24 24;" xml:space="preserve">
<style type="text/css">
	.st0{fill-rule:evenodd;clip-rule:evenodd;}
</style>
<path class="st0" d="M11.2,2.2c-0.1,0-0.2,0-0.3,0C4.9,2.2,0,7.1,0,13.1S4.9,24,10.9,24s10.9-4.9,10.9-10.9c0-0.1,0-0.2,0-0.3
	c-0.7,0.2-1.4,0.3-2.2,0.3c-4.8,0-8.7-3.9-8.7-8.7C10.9,3.6,11,2.9,11.2,2.2z M8.7,8.7c0-1.2-1-2.2-2.2-2.2s-2.2,1-2.2,2.2
	s1,2.2,2.2,2.2S8.7,9.9,8.7,8.7z M10.9,20.7c3.4,0,6.5-2.6,6.5-5.5v-1.1h-13v1.1C4.4,18.1,7.5,20.7,10.9,20.7z"/>
<path d="M21.7,3.9L24,1.6L22.4,0l-2.3,2.3L17.8,0l-1.6,1.6l2.3,2.3l-2.3,2.3l1.6,1.6l2.3-2.3l2.3,2.3L24,6.2L21.7,3.9z"/>
</svg>
