<?xml version="1.0" encoding="utf-8"?>
<!-- Generator: Adobe Illustrator 25.2.1, SVG Export Plug-In . SVG Version: 6.00 Build 0)  -->
<svg version="1.1" id="Layer_1" xmlns="http://www.w3.org/2000/svg" xmlns:xlink="http://www.w3.org/1999/xlink" x="0px" y="0px"
	 viewBox="0 0 24 24" style="enable-background:new 0 0 24 24;" xml:space="preserve">
<path d="M21.3,0H2.7C1.2,0,0,1.2,0,2.7v18.7C0,22.8,1.2,24,2.7,24h18.7c1.5,0,2.7-1.2,2.7-2.7V2.7C24,1.2,22.8,0,21.3,0z M13.3,18.7
	H6.7c-0.7,0-1.3-0.6-1.3-1.3c0-0.7,0.6-1.3,1.3-1.3h6.7c0.7,0,1.3,0.6,1.3,1.3C14.7,18.1,14.1,18.7,13.3,18.7z M17.3,13.3H6.7
	c-0.7,0-1.3-0.6-1.3-1.3s0.6-1.3,1.3-1.3h10.7c0.7,0,1.3,0.6,1.3,1.3S18.1,13.3,17.3,13.3z M17.3,8H6.7C5.9,8,5.3,7.4,5.3,6.7
	s0.6-1.3,1.3-1.3h10.7c0.7,0,1.3,0.6,1.3,1.3S18.1,8,17.3,8z"/>
</svg>
