<?xml version="1.0" encoding="utf-8"?>
<!-- Generator: Adobe Illustrator 25.2.1, SVG Export Plug-In . SVG Version: 6.00 Build 0)  -->
<svg version="1.1" id="Layer_1" xmlns="http://www.w3.org/2000/svg" xmlns:xlink="http://www.w3.org/1999/xlink" x="0px" y="0px"
	 viewBox="0 0 24 24" style="enable-background:new 0 0 24 24;" xml:space="preserve">
<style type="text/css">
	.st0{fill-rule:evenodd;clip-rule:evenodd;}
</style>
<path class="st0" d="M21.3,9.6H24v4.8h-2.7c-0.3,1.1-0.8,2.2-1.4,3.1l1.7,1.7l-2.4,2.4l-1.7-1.7c-0.9,0.6-2,1.1-3.1,1.4V24H9.6v-2.7
	c-1.1-0.3-2.2-0.8-3.1-1.4l-1.7,1.7l-2.4-2.4l1.7-1.7c-0.6-0.9-1.1-2-1.4-3.1H0V9.6h2.7C3,8.5,3.5,7.4,4.1,6.5L2.4,4.8l2.4-2.4
	l1.7,1.7c0.9-0.6,2-1.1,3.1-1.4V0h4.8v2.7c1.1,0.3,2.2,0.8,3.1,1.4l1.7-1.7l2.4,2.4l-1.7,1.7C20.5,7.4,21,8.5,21.3,9.6z M12,16.8
	c2.7,0,4.8-2.1,4.8-4.8c0-2.7-2.1-4.8-4.8-4.8c-2.7,0-4.8,2.1-4.8,4.8C7.2,14.7,9.3,16.8,12,16.8z"/>
</svg>
