<?xml version="1.0" encoding="utf-8"?>
<!-- Generator: Adobe Illustrator 25.2.1, SVG Export Plug-In . SVG Version: 6.00 Build 0)  -->
<svg version="1.1" id="Layer_1" xmlns="http://www.w3.org/2000/svg" xmlns:xlink="http://www.w3.org/1999/xlink" x="0px" y="0px"
	 viewBox="0 0 24 24" style="enable-background:new 0 0 24 24;" xml:space="preserve">
<path d="M12.5,16.2c0.8,0,1.4-0.8,1.1-1.6L8.4,1.4C8.1,0.8,7.5,0.4,6.8,0.4S5.5,0.8,5.3,1.4L0.1,14.6c-0.3,0.8,0.3,1.6,1.1,1.6
	c0.5,0,0.9-0.3,1.1-0.8l1.1-2.9h6.9l1.1,2.9C11.5,15.9,12,16.2,12.5,16.2z M4.3,10.1l2.5-6.7l2.5,6.7H4.3z M21.9,11.7l-9,9l-3.6-3.6
	c-0.5-0.5-1.2-0.5-1.7,0s-0.5,1.2,0,1.7l4.5,4.5c0.5,0.5,1.2,0.5,1.7,0l9.9-9.9c0.5-0.5,0.5-1.2,0-1.7
	C23.2,11.2,22.4,11.2,21.9,11.7z"/>
</svg>
