<?xml version="1.0" encoding="utf-8"?>
<!-- Generator: Adobe Illustrator 25.2.1, SVG Export Plug-In . SVG Version: 6.00 Build 0)  -->
<svg version="1.1" id="Layer_1" xmlns="http://www.w3.org/2000/svg" xmlns:xlink="http://www.w3.org/1999/xlink" x="0px" y="0px"
	 viewBox="0 0 20 20" style="enable-background:new 0 0 20 20;" xml:space="preserve">
<style type="text/css">
	.st0{fill-rule:evenodd;clip-rule:evenodd;}
</style>
<path class="st0" d="M12.1,0.7v4.7c0,1.4,1.2,2.6,2.6,2.6h4.7c0.6,0,0.9-0.7,0.5-1.1l-6.6-6.6C12.7-0.2,12.1,0.1,12.1,0.7z M14.6,10
	C12.1,10,10,7.9,10,5.4V0H2C0.9,0,0,0.9,0,2v16c0,1.1,0.9,2,2,2h16c1.1,0,2-0.9,2-2v-8H14.6z M12,13h-0.8H8.8H8c0,1.1,0.9,2,2,2
	C11.1,15,12,14.1,12,13z M17.8,13.3c0,0.6-0.5,1.1-1.1,1.1c-0.6,0-1.1-0.5-1.1-1.1c0-0.6,0.5-1.1,1.1-1.1
	C17.3,12.2,17.8,12.7,17.8,13.3z M2,12.2L2.5,11l3.1,1.8c0.2,0.1,0.2,0.3,0,0.4L2.5,15L2,13.7L3.3,13L2,12.2z"/>
</svg>
