<?xml version="1.0" encoding="utf-8"?>
<!-- Generator: Adobe Illustrator 25.2.1, SVG Export Plug-In . SVG Version: 6.00 Build 0)  -->
<svg version="1.1" id="Layer_1" xmlns="http://www.w3.org/2000/svg" xmlns:xlink="http://www.w3.org/1999/xlink" x="0px" y="0px"
	 viewBox="0 0 24 24" style="enable-background:new 0 0 24 24;" xml:space="preserve">
<g>
	<path d="M3.8,20.5c-0.1,0-0.1-0.1-0.1-0.2l0.8-4.3H0.2C0.1,16.1,0,16,0,15.9l0.3-2c0-0.1,0.1-0.1,0.1-0.1h4.3L6,7.2H1.7
		C1.7,7.2,1.6,7.1,1.6,7l0.3-2C2,5,2,4.9,2.1,4.9h4.3l0.8-4.3c0-0.1,0.1-0.1,0.1-0.1h2c0.1,0,0.1,0.1,0.1,0.2L8.6,4.9h6.7l0.8-4.3
		c0-0.1,0.1-0.1,0.1-0.1h2c0.1,0,0.1,0.1,0.1,0.2l-0.8,4.3h4.3C21.9,4.9,22,5,22,5.1l-0.3,2c0,0.1-0.1,0.1-0.1,0.1h-4.3l-0.4,2.3
		h-2.2l0.4-2.3H8.3l-1.2,6.7h2.5v2.2H6.7l-0.8,4.3c0,0.1-0.1,0.1-0.1,0.1H3.8z"/>
	<path d="M12.7,11.6c-0.6,0-1.1,0.5-1.1,1.1v7c0,0.6,0.5,1.1,1.1,1.1h1.1c0.1,0,0.3,0.1,0.3,0.3v2.3c0,0.2,0.3,0.4,0.4,0.2l2.7-2.5
		c0.2-0.2,0.5-0.3,0.7-0.3h4.9c0.6,0,1.1-0.5,1.1-1.1v-7c0-0.6-0.5-1.1-1.1-1.1H12.7z"/>
</g>
</svg>
