<?xml version="1.0" encoding="utf-8"?>
<!-- Generator: Adobe Illustrator 25.2.1, SVG Export Plug-In . SVG Version: 6.00 Build 0)  -->
<svg version="1.1" id="Layer_1" xmlns="http://www.w3.org/2000/svg" xmlns:xlink="http://www.w3.org/1999/xlink" x="0px" y="0px"
	 viewBox="0 0 24 24" style="enable-background:new 0 0 24 24;" xml:space="preserve">
<style type="text/css">
	.st0{fill:none;}
</style>
<path class="st0" d="M6,10.8v2.4h5.7l-2.4-2.4H6z"/>
<path d="M20.3,18.9l-5.7-5.7l-2.4-2.4L5.1,3.7L1.5,0L0,1.5l3.7,3.7c-3.8,4.6-3.1,11.4,1.6,15.2c4,3.2,9.6,3.2,13.6,0l3.7,3.7
	l1.5-1.5L20.3,18.9z M6,13.2v-2.4h3.3l2.4,2.4H6z M12,1.2c-1.8,0-3.5,0.4-5.1,1.3l8.3,8.3H18v2.4h-0.4l3.9,3.9
	c2.8-5.3,0.9-11.8-4.4-14.6C15.5,1.6,13.8,1.2,12,1.2z"/>
</svg>
