<?xml version="1.0" encoding="utf-8"?>
<!-- Generator: Adobe Illustrator 25.2.1, SVG Export Plug-In . SVG Version: 6.00 Build 0)  -->
<svg version="1.1" id="Layer_1" xmlns="http://www.w3.org/2000/svg" xmlns:xlink="http://www.w3.org/1999/xlink" x="0px" y="0px"
	 viewBox="0 0 24 24" style="enable-background:new 0 0 24 24;" xml:space="preserve">
<g>
	<path d="M21.7,21.4H8c-0.3,0-0.5,0.2-0.5,0.5c0,0.3,0.2,0.5,0.5,0.5h13.6c0.3,0,0.5-0.2,0.5-0.5C22.1,21.6,21.9,21.4,21.7,21.4z"/>
	<path d="M6.7,21.4L6.7,21.4c-0.3,0-0.5,0.2-0.5,0.5c0,0.3,0.2,0.5,0.5,0.5h0c0.3,0,0.5-0.2,0.5-0.5C7.1,21.6,6.9,21.4,6.7,21.4z"/>
	<g>
		<path d="M21.7,4.3h-2v-2c0-1.3-1.1-2.3-2.3-2.3h-15C1.1,0,0,1.1,0,2.3v15c0,1.3,1.1,2.3,2.3,2.3h2v2c0,1.3,1.1,2.3,2.3,2.3h15
			c1.3,0,2.3-1.1,2.3-2.3v-15C24,5.4,22.9,4.3,21.7,4.3z M2.3,18.8c-0.8,0-1.4-0.6-1.4-1.4v-15c0-0.8,0.6-1.4,1.4-1.4h15
			c0.8,0,1.4,0.6,1.4,1.4v15c0,0.8-0.6,1.4-1.4,1.4H2.3z M23.1,21.7c0,0.8-0.6,1.4-1.4,1.4h-15c-0.8,0-1.4-0.6-1.4-1.4v-2h12.1
			c1.3,0,2.3-1.1,2.3-2.3V5.3h2c0.8,0,1.4,0.6,1.4,1.4V21.7z"/>
		<path d="M5.2,1.6L5.2,1.6c-0.3,0-0.5,0.2-0.5,0.5s0.2,0.5,0.5,0.5h0c0.3,0,0.5-0.2,0.5-0.5S5.4,1.6,5.2,1.6z"/>
		<path d="M3.8,1.6H2.3c-0.3,0-0.5,0.2-0.5,0.5s0.2,0.5,0.5,0.5h1.5c0.3,0,0.5-0.2,0.5-0.5S4.1,1.6,3.8,1.6z"/>
	</g>
	<g>
		<path d="M5.7,11.6L5.7,11.6L5,10.2c0.3-0.1,0.5-0.3,0.6-0.5c0.2-0.2,0.3-0.5,0.3-0.8c0-0.4-0.2-0.7-0.5-1C5.3,7.7,5.2,7.6,5,7.5
			C4.8,7.4,4.6,7.4,4.4,7.4H3c-0.1,0-0.2,0.1-0.3,0.1C2.6,7.6,2.6,7.7,2.6,7.9v3.9c0,0.1,0.1,0.3,0.1,0.3c0,0,0.1,0.1,0.2,0.1
			c0.1,0,0.1,0,0.2,0c0.1,0,0.2,0,0.3-0.1c0,0,0.1-0.1,0.1-0.2c0-0.1,0-0.1,0-0.2v-1.5H4L4.9,12l0,0c0.1,0.1,0.2,0.2,0.3,0.2
			c0.1,0,0.1,0,0.2,0c0.1,0,0.1,0,0.2,0c0.1-0.1,0.2-0.1,0.2-0.3h0c0-0.1,0-0.1,0-0.2C5.8,11.7,5.8,11.6,5.7,11.6z M5,8.9
			C5,9,4.9,9.1,4.8,9.2c-0.1,0-0.1,0.1-0.2,0.1c-0.1,0-0.1,0-0.2,0v0H3.5v-1h0.9c0.1,0,0.3,0,0.4,0.1C4.9,8.5,4.9,8.6,5,8.7
			C5,8.8,5,8.9,5,8.9z"/>
		<path d="M17.1,7.7c-0.1-0.1-0.1-0.2-0.3-0.2l0,0c-0.1,0-0.3,0-0.4,0c-0.1,0.1-0.2,0.1-0.2,0.3v0l-0.9,2.6l-0.9-2.6h0
			c0-0.1-0.1-0.2-0.2-0.2c-0.1,0-0.2-0.1-0.3-0.1c-0.1,0-0.2,0-0.3,0.1c-0.1,0.1-0.2,0.1-0.2,0.3h0l-0.9,2.6l-0.9-2.6l0,0
			c0-0.1-0.1-0.2-0.2-0.3c-0.1,0-0.1,0-0.2,0c-0.1,0-0.1,0-0.2,0c-0.1,0-0.2,0.1-0.3,0.2c-0.1,0.1-0.1,0.2,0,0.4l0,0l1.4,3.9l0,0
			c0.1,0.1,0.2,0.2,0.3,0.3c0.1,0,0.1,0,0.2,0c0.1,0,0.1,0,0.2,0c0.1,0,0.2-0.1,0.3-0.3l0,0l0.9-2.6l0.9,2.7l0,0
			c0,0.1,0.1,0.2,0.2,0.2c0.1,0.1,0.2,0.1,0.3,0.1c0.1,0,0.2,0,0.2-0.1c0.1-0.1,0.1-0.1,0.2-0.3L17.1,8C17.1,7.9,17.1,7.8,17.1,7.7z
			"/>
		<path d="M10.6,11.6L10.6,11.6l-0.4-1l0,0L9,7.7h0c0-0.1-0.1-0.2-0.3-0.3c-0.1,0-0.1,0-0.2,0c-0.1,0-0.1,0-0.2,0
			c-0.1,0-0.2,0.1-0.3,0.3l0,0l-1.2,2.9h0l-0.4,1v0c-0.1,0.1,0,0.3,0,0.4c0,0.1,0.1,0.2,0.3,0.3l0,0c0.1,0,0.3,0,0.4,0
			c0.1,0,0.2-0.1,0.3-0.3l0.3-0.7h1.8L9.7,12c0.1,0.1,0.1,0.2,0.3,0.3c0.1,0,0.1,0,0.2,0c0.1,0,0.1,0,0.2,0c0.1,0,0.2-0.1,0.3-0.3
			l0,0C10.7,11.8,10.7,11.7,10.6,11.6z M8.1,10.3l0.5-1.2l0.5,1.2H8.1z"/>
	</g>
</g>
</svg>
