<svg xmlns="http://www.w3.org/2000/svg" viewBox="0 0 24 24">
	<path fill="#148eff" d="M18.6410294,4.6069779c0,0,0-0.1672468,0.083622-0.1672468c0.0836239,0,0.0836239,0.1672468,0.1672478,0.1672468c0.4181175,1.3379722,0.3344936,2.9268136-0.3344917,4.6829028c2.2578278,1.1707258,3.5958004,2.7595682,3.4285526,4.2647858c-0.3344917,2.006958-3.1776829,3.0940609-7.1079769,3.010437c0.4181166-0.4181156,0.919857-1.003479,1.3379726-1.5052176c1.5052185-0.3344927,2.5923214-0.919857,2.7595673-1.7560883c0.1672478-0.6689863-0.3344936-1.4215956-1.1707249-2.1742048c-1.5052185,3.0940599-3.930294,5.8536263-6.1881218,7.4424686c1.0871029,1.4215965,2.0905819,2.4250736,3.2613068,2.9268131l0.0836239,0.0836239c0,0.0836239-0.1672459,0-0.3344927,0c-1.3379726-0.3344917-2.5923214-1.1707249-3.9302931-2.5923214c-2.1742048,1.4215965-4.1811624,1.6724663-5.3518882,0.8362331c-1.505219-1.1707249-1.0871024-4.2647858,0.9198556-7.6097164c0.1672463,0.5017405,0.4181166,1.3379726,0.6689863,1.9233351c-0.5017395,1.4215956-0.5017395,2.6759443,0.1672463,3.4285536c0.5017395,0.5017395,1.4215951,0.5017395,2.4250741,0.083622c-1.7560897-2.9268112-2.9268155-6.5226116-3.2613087-9.1985559C4.5923214,8.6208944,3.1707258,9.039011,2.1672468,9.7916212c0,0-0.0836234,0.0836229-0.1672466,0c0.0000002-0.0836239,0.0836234-0.2508707,0.0836234-0.3344936c0.9198558-1.003479,2.2578285-1.6724658,4.1811628-2.0905824C6.1811638,4.8578477,6.8501501,3.018136,8.2717447,2.5163965c1.9233351-0.6689863,4.2647867,1.1707256,6.1044979,4.5992789c-0.5017395-0.0836234-1.3379726-0.3344932-2.006959-0.4181166c-1.0034781-1.0871019-2.0069571-1.8397112-3.0104361-1.5052185c-0.6689863,0.1672468-1.0871029,1.003479-1.2543497,2.0905819c3.3449306-0.3344932,7.024354,0.5017395,9.5330524,1.5888419C18.3901596,7.2829223,18.7246513,5.8613262,18.6410294,4.6069779z M10.6968193,17.066843c2.6759434-1.5052166,4.8501501-3.9302921,6.3553677-6.6062365l0,0c-2.6759443-1.5888414-5.7700043-2.2578278-8.8640661-2.1742039l0,0C8.1044979,11.3804626,8.940731,14.4745226,10.6968193,17.066843L10.6968193,17.066843z" />
</svg>
