<svg xmlns="http://www.w3.org/2000/svg" viewBox="0 0 24 24">
  <path fill="var(--color, #148eff)" d="M19.9,3.2c0,0,0-0.2,0.1-0.2s0.1,0.2,0.2,0.2c0.5,1.6,0.4,3.5-0.4,5.6c2.7,1.4,4.3,3.3,4.1,5.1c-0.4,2.4-3.8,3.7-8.5,3.6c0.5-0.5,1.1-1.2,1.6-1.8c1.8-0.4,3.1-1.1,3.3-2.1c0.2-0.8-0.4-1.7-1.4-2.6c-1.8,3.7-4.7,7-7.4,8.9c1.3,1.7,2.5,2.9,3.9,3.5l0.1,0.1c0,0.1-0.2,0-0.4,0c-1.6-0.4-3.1-1.4-4.7-3.1c-2.6,1.7-5,2-6.4,1c-1.8-1.4-1.3-5.1,1.1-9.1c0.2,0.6,0.5,1.6,0.8,2.3c-0.6,1.7-0.6,3.2,0.2,4.1c0.6,0.6,1.7,0.6,2.9,0.1C6.9,15.3,5.5,11,5.1,7.8c-2,0.2-3.7,0.7-4.9,1.6c0,0-0.1,0.1-0.2,0C0,9.3,0.1,9.1,0.1,9c1.1-1.2,2.7-2,5-2.5C5,3.5,5.8,1.3,7.5,0.7c2.3-0.8,5.1,1.4,7.3,5.5c-0.6-0.1-1.6-0.4-2.4-0.5C11.2,4.4,10,3.5,8.8,3.9C8,4.1,7.5,5.1,7.3,6.4C11.3,6,15.7,7,18.7,8.3C19.6,6.4,20,4.7,19.9,3.2zM10.4,18.1c3.2-1.8,5.8-4.7,7.6-7.9l0,0c-3.2-1.9-6.9-2.7-10.6-2.6l0,0C7.3,11.3,8.3,15,10.4,18.1L10.4,18.1z" />
</svg>
