<svg xmlns="http://www.w3.org/2000/svg" viewBox="0 0 24 24">
  <defs>
    <linearGradient y2="0.66492" x2="0.89144" y1="0.61257" x1="0.13878" id="1">
      <stop stop-color="#0064e1" offset="0" />
      <stop stop-color="#0064e1" offset="0.4" />
      <stop stop-color="#0073ee" offset="0.83" />
      <stop stop-color="#0082fb" offset="1" />
    </linearGradient>
    <linearGradient y2="0.39307" x2="0.54315" y1="0.82782" x1="0.54315" id="2">
      <stop stop-color="#0082fb" offset="0" />
      <stop stop-color="#0064e0" offset="1" />
    </linearGradient>
  </defs>
  <g>
    <path fill="#0081fb" d="M4.160243,14.118516c0,0.7636642,0.1676173,1.3499756,0.3867035,1.704689c0.2872443,0.4645967,0.7156734,0.6614256,1.1524563,0.6614256c0.5633569,0,1.0787311-0.1397953,2.0719151-1.5134249c0.7956634-1.1009884,1.7332015-2.6464043,2.3640265-3.6152439l1.0682974-1.6413965c0.7421074-1.1399345,1.6010532-2.4071507,2.5858927-3.2661057c0.8040085-0.7010717,1.6713009-1.0905542,2.5441656-1.0905542c1.465435,0,2.8613129,0.8492117,3.9296112,2.4419284c1.1691456,1.7443337,1.7366791,3.9414334,1.7366791,6.2087893c0,1.3478966-0.2656879,2.3382931-0.717762,3.1207447c-0.4367828,0.7567062-1.288084,1.5127258-2.720129,1.5127258v-2.1574631c1.2261791,0,1.5322037-1.1267214,1.5322037-2.416194c0-1.8375282-0.4284286-3.8767538-1.3722324-5.3338442c-0.6697712-1.0335197-1.5377617-1.6650434-2.4926987-1.6650434c-1.0328293,0-1.8639612,0.7789645-2.7980213,2.1678958c-0.4965963,0.7379303-1.0063963,1.6372213-1.5787973,2.6519709l-0.630125,1.1162882c-1.2658272,2.244401-1.5864525,2.7555981-2.2193651,3.5992517c-1.1093326,1.4772587-2.0566139,2.0371361-3.3036618,2.0371361c-1.4793463,0-2.4147964-0.6405582-2.9941611-1.6059284C2.2322984,16.2495441,2,15.2174139,2,14.0413122C2,14.0413122,4.1602416,14.1185141,4.160243,14.118516z" />
    <path fill="url(#1)" d="M3.7032924,7.9521508c0.9904046-1.526638,2.4196715-2.594245,4.0589809-2.594245c0.9493699,0,1.8931737,0.2809877,2.8787026,1.0856867c1.0780315,0.8798137,2.2270107,2.3285584,3.6604548,4.7162309l0.5139761,0.8568659c1.2407837,2.0670481,1.946722,3.1304779,2.3598595,3.6319427c0.5313663,0.6440372,0.9034672,0.8359985,1.3868427,0.8359985c1.226181,0,1.5322037-1.1267214,1.5322037-2.416194L22,14.0086231c0,1.3478966-0.265686,2.3382931-0.717762,3.1207447c-0.4367828,0.7567062-1.288084,1.5127258-2.720129,1.5127258c-0.8902473,0-1.6789551-0.1933517-2.5511227-1.0161381c-0.6704702-0.631525-1.4543028-1.7533712-2.057313-2.7618551l-1.7937145-2.9962416c-0.8999891-1.5036821-1.7255554-2.6248465-2.2033644-3.1325665C9.4426174,8.1893158,8.7818813,7.5299778,7.7274952,7.5299778c-0.8533883,0-1.5781064,0.598834-2.184586,1.5148144C5.5429091,9.0447922,3.7032926,7.9521503,3.7032924,7.9521508z" />
    <path fill="url(#2)" d="M7.7274952,7.5299788c-0.8533883,0-1.5781064,0.598834-2.184586,1.5148144C4.6853523,10.3391323,4.160243,12.2670765,4.160243,14.118515c0,0.7636642,0.1676173,1.3499765,0.3867035,1.70469l-1.8417048,1.2129602c-0.4729419-0.7866192-0.7052402-1.8187504-0.7052402-2.9948511c0-2.1386843,0.5870111-4.3677835,1.7032995-6.0891628c0.9904046-1.526638,2.419672-2.594245,4.0589814-2.594245L7.7275043,7.5299706L7.7274952,7.5299788z" />
  </g>
</svg>
