<svg xmlns="http://www.w3.org/2000/svg" viewBox="0 0 24 24">
  <defs>
    <linearGradient y2="0.66492" x2="0.89144" y1="0.61257" x1="0.13878" id="1">
      <stop stop-color="#0064e1" offset="0" />
      <stop stop-color="#0064e1" offset="0.4" />
      <stop stop-color="#0073ee" offset="0.83" />
      <stop stop-color="#0082fb" offset="1" />
    </linearGradient>
    <linearGradient y2="0.39307" x2="0.54315" y1="0.82782" x1="0.54315" id="2">
      <stop stop-color="#0082fb" offset="0" />
      <stop stop-color="#0064e0" offset="1" />
    </linearGradient>
  </defs>
  <g>
    <path fill="#0081fb" d="m2.6901,14.51579c0,0.90687 0.19905,1.60313 0.45922,2.02436c0.34111,0.55172 0.84988,0.78546 1.36857,0.78546c0.669,0 1.28102,-0.16601 2.46045,-1.79723c0.94487,-1.30745 2.05822,-3.14267 2.80734,-4.29319l1.26863,-1.9492c0.88127,-1.3537 1.90129,-2.85855 3.07081,-3.87858c0.95478,-0.83254 1.98471,-1.29506 3.02126,-1.29506c1.74024,0 3.39788,1.00846 4.66651,2.89985c1.38839,2.07144 2.06235,4.68055 2.06235,7.37309c0,1.60066 -0.31551,2.77678 -0.85236,3.70596c-0.51869,0.89861 -1.52963,1.7964 -3.23022,1.7964l0,-2.56204c1.45612,0 1.81953,-1.33801 1.81953,-2.86929c0,-2.18211 -0.50877,-4.60374 -1.62956,-6.33407c-0.79537,-1.22733 -1.82613,-1.97728 -2.96014,-1.97728c-1.22651,0 -2.2135,0.92504 -3.32272,2.57443c-0.58972,0.87631 -1.19512,1.94424 -1.87486,3.14928l-0.74829,1.32562c-1.5032,2.66528 -1.88395,3.27234 -2.63555,4.2742c-1.31736,1.75428 -2.44228,2.41915 -3.92318,2.41915c-1.75676,0 -2.86763,-0.76068 -3.55564,-1.90708c-0.56163,-0.93413 -0.83749,-2.15981 -0.83749,-3.55646l2.56534,0.09168z" />
    <path fill="url(#1)" d="m2.14746,7.19308c1.17613,-1.81292 2.87342,-3.08073 4.82014,-3.08073c1.1274,0 2.24819,0.33368 3.41853,1.28928c1.28019,1.0448 2.64463,2.76522 4.34688,5.60064l0.61036,1.01755c1.47346,2.45467 2.31178,3.71752 2.80239,4.31302c0.63101,0.76481 1.07289,0.99277 1.64691,0.99277c1.45612,0 1.81953,-1.33801 1.81953,-2.86929l2.26305,-0.07103c0,1.60066 -0.31551,2.77678 -0.85236,3.70596c-0.51869,0.89861 -1.52963,1.7964 -3.23022,1.7964c-1.05719,0 -1.9938,-0.22961 -3.02952,-1.20669c-0.7962,-0.74995 -1.72702,-2.08217 -2.44311,-3.27977l-2.13008,-3.55811c-1.06876,-1.78566 -2.04914,-3.11707 -2.61655,-3.72c-0.61036,-0.64836 -1.395,-1.43134 -2.64711,-1.43134c-1.01342,0 -1.87404,0.71113 -2.59425,1.79888l-2.18459,-1.29754z" />
    <path fill="url(#2)" d="m6.9263,6.69174c-1.01342,0 -1.87404,0.71113 -2.59425,1.79888c-1.01837,1.53706 -1.64195,3.82654 -1.64195,6.02517c0,0.90687 0.19905,1.60313 0.45922,2.02436l-2.18707,1.44042c-0.56163,-0.93413 -0.83749,-2.15981 -0.83749,-3.55646c0,-2.53974 0.69709,-5.18685 2.02271,-7.23103c1.17613,-1.81292 2.87342,-3.08073 4.82014,-3.08073l-0.0413,2.57938z" />
  </g>
</svg>
