<svg xmlns="http://www.w3.org/2000/svg" viewBox="0 0 24 24">
  <path fill="#1b1f23" d="M12,0C5.4,0,0,5.4,0,12c0,5.3,3.4,9.8,8.2,11.4C8.8,23.5,9,23.1,9,22.8c0-0.3,0-1.2,0-2.2c-3,0.6-3.8-0.7-4-1.4c-0.1-0.3-0.7-1.4-1.2-1.7c-0.4-0.2-1-0.8,0-0.8c0.9,0,1.6,0.9,1.8,1.2c1.1,1.8,2.8,1.3,3.5,1c0.1-0.8,0.4-1.3,0.8-1.6C7.2,17,4.4,16,4.4,11.4c0-1.3,0.5-2.4,1.2-3.2C5.5,7.8,5.1,6.6,5.7,5c0,0,1-0.3,3.3,1.2c1-0.3,2-0.4,3-0.4c1,0,2,0.1,3,0.4C17.3,4.6,18.3,5,18.3,5c0.7,1.6,0.2,2.9,0.1,3.2c0.8,0.8,1.2,1.9,1.2,3.2c0,4.6-2.8,5.6-5.5,5.9c0.4,0.4,0.8,1.1,0.8,2.2c0,1.6,0,2.9,0,3.3c0,0.3,0.2,0.7,0.8,0.6C20.6,21.8,24,17.3,24,12C24,5.4,18.6,0,12,0z" />
</svg>
