<svg xmlns="http://www.w3.org/2000/svg" viewBox="0 0 24 24">
	<path fill="#1b1f23" d="M12,2C6.5,2,2,6.5,2,12c0,4.416666,2.8333335,8.166666,6.833333,9.5C9.333334,21.583334,9.5,21.25,9.5,21s0-1.0000019,0-1.833334C7,19.666666,6.333333,18.5833321,6.1666665,18c-0.083333-0.25-0.583333-1.1666679-1-1.4166679c-0.3333335-0.1666679-0.833333-0.666666,0-0.666666c0.75,0,1.3333335,0.75,1.5,1C7.583333,18.416666,9,18,9.583334,17.75c0.083333-0.666666,0.333333-1.0833321,0.666666-1.333334C8,16.166666,5.666667,15.333333,5.666667,11.5c0-1.083334,0.4166665-2,1-2.666667C6.5833335,8.5,6.25,7.5,6.75,6.1666665c0,0,0.833333-0.25,2.75,1c0.833333-0.25,1.666667-0.3333335,2.5-0.3333335s1.666667,0.0833335,2.5,0.3333335c1.916666-1.3333335,2.75-1,2.75-1C17.833334,7.5,17.416666,8.583333,17.3333321,8.833333C18,9.5,18.333334,10.416666,18.333334,11.5c0,3.833333-2.333334,4.666666-4.583334,4.916666C14.083333,16.75,14.416667,17.333334,14.416667,18.25c0,1.333334,0,2.416666,0,2.75c0,0.2499981,0.166667,0.583334,0.666667,0.5C19.1666679,20.166666,22,16.416666,22,12C22,6.5,17.5,2,12,2z" />
</svg>
