<svg xmlns="http://www.w3.org/2000/svg" viewBox="0 0 24 24">
  <g fill="var(--color, #c89b3c)">
    <path d="M2.1,7.3c-0.9,1.6-1.4,3.4-1.4,5.3s0.5,3.7,1.4,5.3V7.3z" />
    <path d="M12,1.5c-0.9,0-1.8,0.1-2.6,0.3v1.7c0.8-0.2,1.7-0.4,2.6-0.4c5.3,0,9.5,4.2,9.5,9.3c0,2.3-0.9,4.5-2.3,6.1l-0.3,1l-0.6,2.1c3-2,4.9-5.3,4.9-9.1C23.2,6.5,18.2,1.5,12,1.5z" />
    <path d="M9.4,18.3H18h0.2c1.5-1.5,2.4-3.5,2.4-5.8c0-4.6-3.8-8.4-8.5-8.4c-0.9,0-1.8,0.1-2.6,0.4V18.3z" />
    <path d="M8.3,0H1.9l1.2,2.5v19.1L1.9,24h14.7l1.3-4.7H8.3V0z" />
  </g>
</svg>
