<svg xmlns="http://www.w3.org/2000/svg" viewBox="0 0 24 24">
	<g fill="#c89b3c">
		<path d="M3.7416666,8.083334C2.9916666,9.416667,2.575,10.916667,2.575,12.5s0.4166665,3.083334,1.1666665,4.4166679V8.083334z" />
		<path d="M11.9916668,3.25c-0.75,0-1.5,0.0833333-2.166667,0.25v1.4166665C10.4916668,4.75,11.2416658,4.583333,11.9916668,4.583333c4.416666,0,7.916666,3.5,7.916666,7.75c0,1.916667-0.75,3.749999-1.916666,5.083333L17.7416687,18.25L17.2416668,20c2.5-1.666666,4.083334-4.416667,4.083334-7.583333C21.3250008,7.4166665,17.1583347,3.25,11.9916668,3.25z" />
		<path d="M9.8249998,17.25h7.166667h0.1666679c1.25-1.250001,1.9999981-2.916667,1.9999981-4.833334c0-3.833333-3.1666651-7-7.0833321-7c-0.75,0-1.500001,0.0833335-2.166667,0.3333335v11.5H9.8249998z" />
		<path d="M8.9083338,2H3.575l0.9999998,2.0833335V20L3.575,22h12.250001l1.0833321-3.9166679h-7.999999V2z" />
	</g>
</svg>
