<svg xmlns="http://www.w3.org/2000/svg" viewBox="0 0 24 24">
  <path fill="#0070d1" d="M2.4,15.5C1.7,16,1.9,17,3.5,17.4C5.2,18,7,18.1,8.7,17.8c0.1,0,0.2,0,0.2,0v-1.7l-1.7,0.5c-0.6,0.2-1.3,0.2-1.9,0.1c-0.5-0.1-0.4-0.4,0.2-0.7L9,14.8V13l-4.8,1.6C3.6,14.8,3,15.1,2.4,15.5z M14,8.1v4.8c2,1,3.6,0,3.6-2.6c0-2.6-0.9-3.8-3.7-4.8C12.5,5,11,4.6,9.5,4.3v14.4l3.5,1V7.6c0-0.5,0-0.9,0.4-0.8C13.9,7,14,7.5,14,8.1z M20.5,14.4c-1.4-0.5-3-0.7-4.5-0.5c-0.8,0-1.5,0.2-2.2,0.5l-0.1,0v1.9l3.2-1.2c0.6-0.2,1.3-0.2,1.9-0.1c0.5,0.1,0.4,0.4-0.2,0.7l-5,1.8v1.9l6.9-2.5c0.5-0.2,0.9-0.4,1.3-0.8C22.2,15.6,22,14.9,20.5,14.4z" />
</svg>
