<svg xmlns="http://www.w3.org/2000/svg" viewBox="0 0 24 24">
	<g fill="#ff4500">
		<circle cx="12" cy="12" r="10" />
		<path fill="#fff" d="M18.666666,12c0-0.833333-0.666666-1.416666-1.4999981-1.416666C16.833334,10.583334,16.5000019,10.75,16.25,11c-1.166666-0.75-2.5-1.166666-3.833333-1.25l0.666667-3.083333L15.25,7.0833335C15.333333,7.666667,15.833334,8,16.3333321,8C16.916666,7.916667,17.25,7.416667,17.25,6.916667s-0.583334-0.9166665-1.083334-0.9166665c-0.3333321,0-0.583333,0.2500005-0.749999,0.5L12.833333,6C12.666667,6,12.5,6.0833335,12.5,6.2500005l0,0L11.750001,9.75C10.333333,9.75,9,10.166667,7.8333335,10.916666C7.25,10.333333,6.333333,10.416666,5.75,11c-0.5833335,0.583333-0.5,1.5,0.083333,2.083334C5.9166665,13.166667,6.0833335,13.25,6.25,13.333334c0,0.166666,0,0.333333,0,0.416666c0,2.25,2.583333,4.083334,5.833334,4.083334s5.833334-1.8333349,5.833334-4.083334c0-0.166666,0-0.333333,0-0.416666C18.333334,13.083334,18.666666,12.583333,18.666666,12z M8.666667,13c0-0.583333,0.416666-1,0.999999-1c0.583334,0,1,0.416667,1,1s-0.416666,1-1,1C9.083333,14,8.666667,13.583333,8.666667,13z M14.5,15.75c-0.75,0.5-1.583333,0.833334-2.5,0.75c-0.916667,0-1.75-0.25-2.5-0.75c-0.083334-0.083334-0.083334-0.249999,0-0.416667c0.083334-0.083333,0.25-0.083333,0.333333,0c0.583333,0.416667,1.333334,0.666666,2.083333,0.666666c0.75,0,1.5-0.166667,2.083334-0.583334c0.083333-0.083333,0.25-0.083333,0.416666,0C14.583334,15.500001,14.583334,15.666666,14.5,15.75L14.5,15.75L14.5,15.75z M14.333334,14c-0.583334,0-1-0.416667-1-1s0.416666-1,1-1c0.583333,0,0.999999,0.416667,0.999999,1S14.916667,14.083333,14.333334,14C14.333334,14.083333,14.333334,14.083333,14.333334,14L14.333334,14z" />
	</g>
</svg>
