<svg xmlns="http://www.w3.org/2000/svg" viewBox="0 0 24 24">
  <g fill="var(--color, #ff4500)">
  	<circle cx="12" cy="12" r="12"/>
  	<path fill="#fff" d="M20,12c0-1-0.8-1.7-1.8-1.7c-0.4,0-0.8,0.2-1.1,0.5c-1.4-0.9-3-1.4-4.6-1.5l0.8-3.7l2.6,0.5c0.1,0.7,0.7,1.1,1.3,1.1c0.7-0.1,1.1-0.7,1.1-1.3s-0.7-1.1-1.3-1.1c-0.4,0-0.7,0.3-0.9,0.6L13,4.8c-0.2,0-0.4,0.1-0.4,0.3c0,0,0,0,0,0l-0.9,4.2C10,9.3,8.4,9.8,7,10.7c-0.7-0.7-1.8-0.6-2.5,0.1c-0.7,0.7-0.6,1.8,0.1,2.5c0.1,0.1,0.3,0.2,0.5,0.3c0,0.2,0,0.4,0,0.5c0,2.7,3.1,4.9,7,4.9s7-2.2,7-4.9c0-0.2,0-0.4,0-0.5C19.6,13.3,20,12.7,20,12z M8,13.2C8,12.5,8.5,12,9.2,12s1.2,0.5,1.2,1.2c0,0.7-0.5,1.2-1.2,1.2S8,13.9,8,13.2z M15,16.5c-0.9,0.6-1.9,1-3,0.9c-1.1,0-2.1-0.3-3-0.9c-0.1-0.1-0.1-0.3,0-0.5c0.1-0.1,0.3-0.1,0.4,0c0.7,0.5,1.6,0.8,2.5,0.8c0.9,0,1.8-0.2,2.5-0.7c0.1-0.1,0.3-0.1,0.5,0C15.1,16.2,15.1,16.4,15,16.5L15,16.5L15,16.5z M14.8,14.4c-0.7,0-1.2-0.5-1.2-1.2c0-0.7,0.5-1.2,1.2-1.2c0.7,0,1.2,0.5,1.2,1.2C16,13.9,15.5,14.5,14.8,14.4C14.8,14.5,14.8,14.5,14.8,14.4L14.8,14.4z"/>
  </g>
</svg>
