<svg xmlns="http://www.w3.org/2000/svg" viewBox="0 0 24 24">
	<circle fill="#fff" cx="12" cy="12" r="9" />
	<path fill="#0078d7" d="M12,18c-3.333334,0-4.833334-1.666666-4.833334-2.916666c0-0.333333,0.0833335-0.583333,0.3333335-0.75c0.2500005-0.166666,0.5-0.333333,0.8333335-0.333333c1.416667,0,1.083333,2.166667,3.666667,2.166667c1.333333,0,2.166667-0.833333,2.166667-1.583333c0-0.5-0.25-0.999999-1.166667-1.166666l-3-0.75C7.6666665,12,7.25,10.666666,7.25,9.416666c0-2.583333,2.333333-3.4999995,4.583333-3.4999995c2.083334,0,4.500001,1.1666665,4.500001,2.6666665c0,0.666667-0.583334,1-1.166667,1c-1.25,0-0.999999-1.666667-3.416667-1.666667c-1.25,0-1.833333,0.583333-1.833333,1.333334c0,0.75,0.916667,1.083333,1.75,1.25l2.166667,0.5c2.416666,0.5,3,1.916667,3,3.333334C16.8333321,16.416666,15.166667,18,12,18 M21.25,13.666667C21.333334,13.083334,21.4166679,12.583333,21.4166679,12c0-2.75-1.166666-5.4166665-3.333334-7.166667s-4.916666-2.5833333-7.666666-2.0833333C9.5,2.25,8.583333,2,7.583333,2c-1.9166665,0-3.75,1.0833333-4.75,2.8333335S1.8333331,8.666667,2.7499998,10.333333c-0.5,3.083333,0.4166667,6.166667,2.5833333,8.333333s5.25,3.166666,8.25,2.583334c0.833333,0.5,1.75,0.75,2.749999,0.75c2,0,3.833334-1.0833321,4.833334-2.8333321C22.1666679,17.5,22.1666679,15.333333,21.25,13.666667" />
</svg>
