<svg xmlns="http://www.w3.org/2000/svg" viewBox="0 0 24 24">
  <circle cx="12" cy="12" r="10" fill="#fff" />
  <path fill="#0078d7" d="M12,19.2c-4,0-5.8-2-5.8-3.5c0-0.4,0.1-0.7,0.4-0.9c0.3-0.2,0.6-0.4,1-0.4c1.7,0,1.3,2.6,4.4,2.6c1.6,0,2.6-1,2.6-1.9c0-0.6-0.3-1.2-1.4-1.4l-3.6-0.9C6.8,12,6.3,10.4,6.3,8.9c0-3.1,2.8-4.2,5.5-4.2c2.5,0,5.4,1.4,5.4,3.2c0,0.8-0.7,1.2-1.4,1.2c-1.5,0-1.2-2-4.1-2c-1.5,0-2.2,0.7-2.2,1.6s1.1,1.3,2.1,1.5l2.6,0.6c2.9,0.6,3.6,2.3,3.6,4C17.8,17.3,15.8,19.2,12,19.2 M23.1,14c0.1-0.7,0.2-1.3,0.2-2c0-3.3-1.4-6.5-4-8.6s-5.9-3.1-9.2-2.5C9,0.3,7.9,0,6.7,0C4.4,0,2.2,1.3,1,3.4S-0.2,8,0.9,10C0.3,13.7,1.4,17.4,4,20s6.3,3.8,9.9,3.1c1,0.6,2.1,0.9,3.3,0.9c2.4,0,4.6-1.3,5.8-3.4C24.2,18.6,24.2,16,23.1,14" />
</svg>
