<svg xmlns="http://www.w3.org/2000/svg" viewBox="0 0 24 24">
	<path fill="#1ed760" d="M12,2C6.47715,2,2,6.47715,2,12c0,5.5228004,4.47715,10,10,10c5.5228004,0,10-4.4771996,10-10c0-2.6521597-1.0536003-5.1957002-2.9288998-7.0710702C17.1956997,3.05357,14.6521997,2,12,2z M16.5625,16.4375c-0.1833992,0.2786007-0.5480003,0.3731995-0.8437004,0.2187004C13.375,15.2187996,10.4062004,14.9062004,6.9375,15.6875c-0.21771,0.0502005-0.4456801-0.0194998-0.5980501-0.1829004c-0.15236-0.1633997-0.2059698-0.3956995-0.1406198-0.6093998c0.06534-0.2136002,0.2397099-0.3761997,0.4574199-0.4264002c3.8125496-0.875,7.0625496-0.5,9.71875,1.125c0.1399002,0.0843,0.2390995,0.2222004,0.2744999,0.3817005C16.6849995,16.1348991,16.6534996,16.3019009,16.5625,16.4375z M17.8125,13.6875c-0.1072006,0.1746998-0.2796993,0.2994003-0.4792004,0.3463001C17.1338005,14.0806999,16.9237995,14.0460997,16.75,13.9375c-2.6875-1.6562996-6.78125-2.125-9.96875-1.1562996c-0.2679501,0.0781994-0.55724,0.0074997-0.7588902-0.1855001c-0.2016597-0.1929998-0.2850499-0.4789-0.21875-0.75c0.0662904-0.2711,0.2721901-0.4863005,0.5401402-0.5644999C9.96875,10.1875,14.5,10.7187996,17.5625,12.625C17.9134007,12.8575001,18.0228996,13.3228998,17.8125,13.6875z M17.9062004,10.875C14.6875,8.96875,9.375,8.78125,6.28125,9.71875C5.8169098,9.79284,5.3695202,9.5115004,5.2351298,9.0608997C5.10074,8.6103096,5.32093,8.1298599,5.75,7.9375c3.53125-1.0625,9.4062004-0.875,13.125,1.34375c0.2143002,0.1258402,0.3684006,0.3331099,0.4272995,0.5745201c0.0589008,0.2414303,0.0174999,0.4963303-0.1147995,0.7067299C18.9053993,10.9821997,18.3498993,11.1176996,17.9062004,10.875z" />
</svg>
