<svg xmlns="http://www.w3.org/2000/svg" viewBox="0 0 24 24">
	<g fill="#c5c3c0">
		<path d="M11.9826756,1.9827901C6.7205076,1.9827901,2.409642,6.0402617,2,11.1966801l5.369051,2.2198572C7.8239822,13.1053991,8.3735685,12.92311,8.9648209,12.92311c0.0529881,0,0.1057501,0.001811,0.1580601,0.004755l2.3876534-3.4607849c0-0.016531-0.000226-0.032609-0.000226-0.048912c0-2.0830841,1.6945009-3.7778111,3.7778101-3.7778111c2.0830822,0,3.7775841,1.6947269,3.7775841,3.7778111s-1.6945019,3.7780371-3.7775841,3.7780371c-0.028758,0-0.057291-0.000679-0.085824-0.001359l-3.4053049,2.4297724c0.001812,0.044157,0.003397,0.089221,0.003397,0.1340561c0,1.5638409-1.2719517,2.8355656-2.8355656,2.8355656c-1.3724937,0-2.5201254-0.9796066-2.780086-2.2769222L2.3451047,14.729928c1.1888452,4.2046614,5.0517993,7.287282,9.6375713,7.287282C17.5152206,22.01721,22,17.5322075,22,12.0003405C21.9999981,6.467567,17.5149956,1.9827901,11.9826756,1.9827901" />
		<path d="M8.2773285,17.1823444l-1.2305112-0.5083733c0.2180681,0.4540253,0.5953283,0.8342304,1.0962281,1.0430145c1.0828686,0.4510803,2.3312693-0.0627251,2.7825775-1.1464996c0.2185211-0.5239983,0.2198801-1.1025696,0.00317-1.6279259c-0.2162571-0.5255823-0.6243134-0.9354515-1.1489906-1.1541986c-0.5206013-0.2167101-1.0783396-0.2087841-1.5683699-0.023777l1.2710457,0.5255823c0.7986774,0.3328772,1.1763906,1.2499866,0.8435135,2.0486641C9.9937954,17.1377354,9.0760069,17.5154476,8.2773285,17.1823444" />
		<path d="M17.8050728,9.4181681c0-1.3878918-1.1290627-2.5171824-2.5171814-2.5171824c-1.3878927,0-2.5171824,1.1292896-2.5171824,2.5171824c0,1.3881178,1.1292896,2.5169554,2.5171824,2.5169554C16.6760101,11.9348955,17.8050728,10.8060589,17.8050728,9.4181681 M13.4011383,9.4138651c0-1.0443726,0.8466835-1.89083,1.8910551-1.89083s1.891057,0.8464575,1.891057,1.89083s-0.8466854,1.8908291-1.891057,1.8908291S13.4011383,10.4580107,13.4011383,9.4138651" />
	</g>
</svg>
