<svg xmlns="http://www.w3.org/2000/svg" viewBox="0 0 24 24">
  <g fill="#c5c3c0">
    <path d="M12,0.1C5.7,0.1,0.6,4.9,0.1,11l6.4,2.6c0.5-0.4,1.2-0.6,1.9-0.6c0.1,0,0.1,0,0.2,0L11.4,9c0,0,0,0,0-0.1c0-2.5,2-4.5,4.5-4.5c2.5,0,4.5,2,4.5,4.5s-2,4.5-4.5,4.5c0,0-0.1,0-0.1,0l-4.1,2.9c0,0.1,0,0.1,0,0.2c0,1.9-1.5,3.4-3.4,3.4c-1.6,0-3-1.2-3.3-2.7l-4.6-1.9c1.4,5,6,8.7,11.5,8.7c6.6,0,11.9-5.3,11.9-11.9C23.9,5.4,18.6,0.1,12,0.1" />
    <path d="M7.6,18.2l-1.5-0.6c0.3,0.5,0.7,1,1.3,1.2c1.3,0.5,2.8-0.1,3.3-1.4c0.3-0.6,0.3-1.3,0-1.9c-0.3-0.6-0.7-1.1-1.4-1.4c-0.6-0.3-1.3-0.2-1.9,0L9,14.7c1,0.4,1.4,1.5,1,2.4C9.6,18.1,8.5,18.6,7.6,18.2" />
    <path d="M18.9,8.9c0-1.7-1.3-3-3-3c-1.7,0-3,1.3-3,3c0,1.7,1.3,3,3,3C17.6,11.9,18.9,10.6,18.9,8.9 M13.7,8.9c0-1.2,1-2.3,2.3-2.3s2.3,1,2.3,2.3s-1,2.3-2.3,2.3C14.7,11.2,13.7,10.2,13.7,8.9" />
  </g>
</svg>
