<svg xmlns="http://www.w3.org/2000/svg" viewBox="0 0 24 24">
	<path fill="#1d9bf0" d="M22,5.7972331c-0.735487,0.3259048-1.525589,0.5461111-2.356205,0.6456442c0.847353-0.5073547,1.4974022-1.3124285,1.8039284-2.2707658c-0.7927418,0.4703603-1.6709232,0.8121204-2.6054783,0.9953322c-0.7487011-0.7962656-1.8144989-1.2948122-2.9948034-1.2948122c-2.265481,0-4.1028805,1.8373995-4.1028805,4.1046424c0,0.3206196,0.0369949,0.632432,0.1056986,0.9336739C8.4388266,8.7391872,5.416718,7.1052575,3.3925829,4.6230946c-0.3523297,0.607769-0.5549192,1.312428-0.5549192,2.062891c0,1.4234123,0.7249186,2.6803493,1.825068,3.4158373C3.9897821,10.0798025,3.3573501,9.89571,2.8041923,9.5883026v0.0528498c0,1.9880209,1.4137232,3.6466131,3.2916415,4.0236063c-0.3452835,0.0933666-0.7073021,0.1426926-1.0807719,0.1426926c-0.2642474,0-0.5223289-0.024663-0.7724829-0.0722275c0.5223289,1.6295261,2.0373468,2.8168755,3.8333488,2.848587c-1.4049158,1.1010303-3.1744919,1.757246-5.0964508,1.757246c-0.3311901,0-0.6579759-0.0193787-0.9794769-0.0572548c1.8162601,1.1653309,3.9725189,1.8435669,6.2890873,1.8435669c7.548666,0,11.6753273-6.2520924,11.6753273-11.674448c0-0.1761646-0.0044022-0.3540916-0.012331-0.5302567c0.8015499-0.5795827,1.4974022-1.3009782,2.0461559-2.122787L22,5.7972331z" />
</svg>
