<svg xmlns="http://www.w3.org/2000/svg" viewBox="0 0 24 24">
  <path fill="#107c10" d="M11.0027857,21.9644508c-1.5406904-0.1476078-3.1004419-0.7008419-4.4402938-1.5750942c-1.1227422-0.7322235-1.3761144-1.0337124-1.3761144-1.6345997c0-1.2071228,1.3272991-3.3217363,3.5983534-5.7317963c1.2894106-1.3691406,3.0857973-2.9730587,3.2798948-2.929822c0.3779659,0.0843792,3.3975153,3.0297766,4.528161,4.416584c1.7875538,2.1920195,2.6090374,3.9874773,2.191555,4.7878084c-0.3172951,0.608326-2.2866268,1.7975502-3.7331753,2.2543182C13.8586893,21.928421,12.2926617,22.087883,11.0027857,21.9644508z M3.669862,17.4997501c-0.9330616-1.4314384-1.4044738-2.8405619-1.6318116-4.8786983c-0.0753144-0.6729479-0.0488149-1.0576553,0.1703873-2.4393492c0.272666-1.7201433,1.2529149-3.712255,2.4314458-4.9372754c0.5016308-0.5206923,0.5462618-0.5346394,1.1580749-0.3277574C6.5394793,5.1677179,7.33214,5.7153745,8.5618095,6.8274236l0.718276,0.6494703L8.8872423,7.9580688c-1.819633,2.2338619-3.7401495,5.4021797-4.4630747,7.3617477c-0.3928437,1.0646305-0.5509107,2.1339073-0.3812208,2.5790539c0.1139011,0.3007908,0.0092978,0.1887493-0.3742473-0.3984222L3.669862,17.4997501z M20.0467873,17.7431259c0.0922852-0.4500256-0.0244083-1.2761593-0.2975368-2.1097326c-0.5915909-1.8049879-2.5695229-5.1627541-4.3856688-7.4458961l-0.5718307-0.7187405l0.6187859-0.5678797c0.807538-0.7415214,1.3682108-1.1855044,1.9735155-1.5627732c0.4772243-0.2975383,1.1594696-0.5609064,1.4528236-0.5609064c0.1806145,0,0.8173008,0.662488,1.3310184,1.3830881c0.7959156,1.1157684,1.3812294,2.470963,1.6778374,3.879621c0.1917725,0.9112101,0.2078114,2.8591566,0.0309162,3.7680426c-0.1464443,0.7457056-0.4532795,1.7122402-0.7508202,2.3679867c-0.2254772,0.4911709-0.7810383,1.445385-1.0251102,1.7559395c-0.1255245,0.1596947-0.1255245,0.159462-0.055788-0.18503L20.0467873,17.7431259z M11.1678267,4.4364233c-0.8382215-0.4253864-2.1311178-0.8821542-2.8452101-1.0053537C8.0724993,3.3880661,7.6454849,3.3636584,7.3742137,3.3776057C6.7847161,3.4073594,6.8109832,3.3766758,7.7561321,2.930136c0.7856874-0.3712256,1.4412012-0.5894978,2.3314905-0.7763891c1.0007057-0.2103688,2.8824024-0.2126932,3.867301-0.0051138c1.063467,0.2243161,2.3161488,0.6903818,3.0218735,1.1250668l0.2101364,0.1287782l-0.4811764-0.0241749c-0.9567709-0.0483501-2.351016,0.3382173-3.8480062,1.066256c-0.4514217,0.2198997-0.8438005,0.3951683-0.8726244,0.3905191c-0.0285921-0.0055785-0.3965626-0.1847992-0.8182306-0.3986549H11.1678267z" />
</svg>
