<svg xmlns="http://www.w3.org/2000/svg" viewBox="0 0 24 24">
	<g fill="#f00">
		<path d="M21.583334,7.1666665c-0.25-0.8333335-0.9166679-1.5-1.7500019-1.75C18.25,5,12,5,12,5S5.75,5,4.166667,5.4166665c-0.8333333,0.25-1.5,0.9166665-1.75,1.75C2,8.75,2,12,2,12s0,3.25,0.4166667,4.8333321c0.25,0.833334,0.9166665,1.5,1.7499998,1.75C5.75,19,12,19,12,19s6.25,0,7.8333321-0.4166679c0.833334-0.2499981,1.5-0.916666,1.7500019-1.75C22,15.25,22,12,22,12S22,8.75,21.583334,7.1666665z" />
		<path fill="#fff" d="M10,15l5.166667-3L10,9V15z" />
	</g>
</svg>
